HIERARCHY
ROOT __0
{
	OFFSET 0.0 0.0 0.0
	CHANNELS 0
	JOINT B_spine
	{
		OFFSET 0.000000 12.574406 0.000015
		CHANNELS 6 Xposition Yposition Zposition Xrotation Yrotation Zrotation
		JOINT B_chest
		{
			OFFSET 0.000000 13.272701 -1.659562
			CHANNELS 3 Xrotation Yrotation Zrotation
			JOINT B_neck
			{
				OFFSET 0.000000 26.692867 -4.569908
				CHANNELS 3 Xrotation Yrotation Zrotation
				JOINT B_head
				{
					OFFSET 0.000000 7.403320 0.307610
					CHANNELS 3 Xrotation Yrotation Zrotation
					JOINT B_jaw
					{
						OFFSET -0.000000 0.000000 0.000000
						CHANNELS 3 Xrotation Yrotation Zrotation
						End Site
						{
							OFFSET -0.000000 0.000984 0.009950
						}
					}
				}
			}
			JOINT B_shoulder_L
			{
				OFFSET 0.000000 18.756275 -3.785036
				CHANNELS 3 Xrotation Yrotation Zrotation
				JOINT B_upperArm_L
				{
					OFFSET 16.013109 -0.237339 -2.397884
					CHANNELS 3 Xrotation Yrotation Zrotation
					JOINT B_forearm_L
					{
						OFFSET 23.352011 -1.609638 0.547266
						CHANNELS 3 Xrotation Yrotation Zrotation
						JOINT B_hand_L
						{
							OFFSET 19.551891 -1.216175 0.514485
							CHANNELS 3 Xrotation Yrotation Zrotation
							JOINT B_indexFinger01_L
							{
								OFFSET 12.844997 0.199680 4.724085
								CHANNELS 3 Xrotation Yrotation Zrotation
								JOINT B_indexFinger02_L
								{
									OFFSET 4.611313 -0.276707 0.722940
									CHANNELS 3 Xrotation Yrotation Zrotation
									JOINT B_indexFinger03_L
									{
										OFFSET 3.373116 -0.582455 0.539038
										CHANNELS 3 Xrotation Yrotation Zrotation
										End Site
										{
											OFFSET 3.390709 -0.544979 0.462370
										}
									}
								}
							}
							JOINT B_middleFinger01_L
							{
								OFFSET 13.080090 0.604294 2.004760
								CHANNELS 3 Xrotation Yrotation Zrotation
								JOINT B_middleFinger02_L
								{
									OFFSET 4.853409 -0.095066 0.410151
									CHANNELS 3 Xrotation Yrotation Zrotation
									JOINT B_middleFinger03_L
									{
										OFFSET 3.509399 -0.643703 0.386323
										CHANNELS 3 Xrotation Yrotation Zrotation
										End Site
										{
											OFFSET 3.507095 -0.680397 0.341829
										}
									}
								}
							}
							JOINT B_pinky01_L
							{
								OFFSET 12.286716 -0.507381 -3.084042
								CHANNELS 3 Xrotation Yrotation Zrotation
								JOINT B_pinky02_L
								{
									OFFSET 3.831200 -0.083115 -0.068955
									CHANNELS 3 Xrotation Yrotation Zrotation
									JOINT B_pinky03_L
									{
										OFFSET 3.179817 -0.497776 0.099569
										CHANNELS 3 Xrotation Yrotation Zrotation
										End Site
										{
											OFFSET 3.153145 -0.628899 0.176385
										}
									}
								}
							}
							JOINT B_ringFinger01_L
							{
								OFFSET 12.938000 0.044765 -0.504557
								CHANNELS 3 Xrotation Yrotation Zrotation
								JOINT B_ringFinger02_L
								{
									OFFSET 4.517715 -0.096210 0.067697
									CHANNELS 3 Xrotation Yrotation Zrotation
									JOINT B_ringFinger03_L
									{
										OFFSET 3.418602 -0.535187 0.254205
										CHANNELS 3 Xrotation Yrotation Zrotation
										End Site
										{
											OFFSET 3.395927 -0.691742 0.164467
										}
									}
								}
							}
							JOINT B_thumb01_L
							{
								OFFSET 4.439804 -1.046291 4.501313
								CHANNELS 3 Xrotation Yrotation Zrotation
								JOINT B_thumb02_L
								{
									OFFSET 3.592289 -1.518921 2.654676
									CHANNELS 3 Xrotation Yrotation Zrotation
									JOINT B_thumb03_L
									{
										OFFSET 2.840012 -1.113506 1.758117
										CHANNELS 3 Xrotation Yrotation Zrotation
										End Site
										{
											OFFSET 2.590385 -1.118584 2.106005
										}
									}
								}
							}
						}
					}
				}
			}
			JOINT B_shoulder_R
			{
				OFFSET -0.000000 18.756275 -3.785036
				CHANNELS 3 Xrotation Yrotation Zrotation
				JOINT B_upperArm_R
				{
					OFFSET -16.013090 -0.237328 -2.397883
					CHANNELS 3 Xrotation Yrotation Zrotation
					JOINT B_forearm_R
					{
						OFFSET -23.351896 -1.608902 0.555032
						CHANNELS 3 Xrotation Yrotation Zrotation
						JOINT B_hand_R
						{
							OFFSET -19.552006 -1.216946 0.506624
							CHANNELS 3 Xrotation Yrotation Zrotation
							JOINT B_indexFinger01_R
							{
								OFFSET -12.845001 0.199692 4.724183
								CHANNELS 3 Xrotation Yrotation Zrotation
								JOINT B_indexFinger02_R
								{
									OFFSET -4.611290 -0.276722 0.722843
									CHANNELS 3 Xrotation Yrotation Zrotation
									JOINT B_indexFinger03_R
									{
										OFFSET -3.373108 -0.582436 0.539036
										CHANNELS 3 Xrotation Yrotation Zrotation
										End Site
										{
											OFFSET -3.390701 -0.544983 0.462362
										}
									}
								}
							}
							JOINT B_middleFinger01_R
							{
								OFFSET -13.080093 0.604294 2.004760
								CHANNELS 3 Xrotation Yrotation Zrotation
								JOINT B_middleFinger02_R
								{
									OFFSET -4.853394 -0.095074 0.410148
									CHANNELS 3 Xrotation Yrotation Zrotation
									JOINT B_middleFinger03_R
									{
										OFFSET -3.509392 -0.643688 0.386422
										CHANNELS 3 Xrotation Yrotation Zrotation
										End Site
										{
											OFFSET -3.507095 -0.680401 0.341822
										}
									}
								}
							}
							JOINT B_pinky01_R
							{
								OFFSET -12.286697 -0.507374 -3.083941
								CHANNELS 3 Xrotation Yrotation Zrotation
								JOINT B_pinky02_R
								{
									OFFSET -3.831169 -0.083084 -0.069060
									CHANNELS 3 Xrotation Yrotation Zrotation
									JOINT B_pinky03_R
									{
										OFFSET -3.179802 -0.497787 0.099573
										CHANNELS 3 Xrotation Yrotation Zrotation
										End Site
										{
											OFFSET -3.153130 -0.628899 0.176378
										}
									}
								}
							}
							JOINT B_ringFinger01_R
							{
								OFFSET -12.937981 0.044788 -0.504458
								CHANNELS 3 Xrotation Yrotation Zrotation
								JOINT B_ringFinger02_R
								{
									OFFSET -4.517723 -0.096233 0.067600
									CHANNELS 3 Xrotation Yrotation Zrotation
									JOINT B_ringFinger03_R
									{
										OFFSET -3.418488 -0.535164 0.254199
										CHANNELS 3 Xrotation Yrotation Zrotation
										End Site
										{
											OFFSET -3.395813 -0.691719 0.164456
										}
									}
								}
							}
							JOINT B_thumb01_R
							{
								OFFSET -4.439884 -1.046288 4.501419
								CHANNELS 3 Xrotation Yrotation Zrotation
								JOINT B_thumb02_R
								{
									OFFSET -3.592213 -1.518921 2.654576
									CHANNELS 3 Xrotation Yrotation Zrotation
									JOINT B_thumb03_R
									{
										OFFSET -2.839989 -1.113472 1.758106
										CHANNELS 3 Xrotation Yrotation Zrotation
										End Site
										{
											OFFSET -2.590363 -1.118580 2.105967
										}
									}
								}
							}
						}
					}
				}
			}
		}
	}
	JOINT B_thigh_L
	{
		OFFSET 9.695101 -5.446954 0.204140
		CHANNELS 6 Xposition Yposition Zposition Xrotation Yrotation Zrotation
		JOINT B_shin_L
		{
			OFFSET -0.933000 -40.742374 5.418079
			CHANNELS 3 Xrotation Yrotation Zrotation
			JOINT B_foot_L
			{
				OFFSET 0.063301 -38.807560 -0.070968
				CHANNELS 3 Xrotation Yrotation Zrotation
				JOINT B_toe_L
				{
					OFFSET -0.000201 -7.386925 15.592754
					CHANNELS 3 Xrotation Yrotation Zrotation
					End Site
					{
						OFFSET -0.000299 1.871780 17.152178
					}
				}
			}
		}
	}
	JOINT B_thigh_R
	{
		OFFSET -9.695101 -5.446981 0.204044
		CHANNELS 6 Xposition Yposition Zposition Xrotation Yrotation Zrotation
		JOINT B_shin_R
		{
			OFFSET 0.932899 -40.742355 5.418177
			CHANNELS 3 Xrotation Yrotation Zrotation
			JOINT B_foot_R
			{
				OFFSET -0.063201 -38.807560 -0.070934
				CHANNELS 3 Xrotation Yrotation Zrotation
				JOINT B_toe_R
				{
					OFFSET 0.000201 -7.387001 15.592752
					CHANNELS 3 Xrotation Yrotation Zrotation
					End Site
					{
						OFFSET 0.000337 1.871780 17.152210
					}
				}
			}
		}
	}
}
MOTION
Frames: 4
Frame Time: 0.016667
-0.000000 12.574439 0.000011 4.613421 -1.815039 3.036483 -9.451409 -0.163442 -2.018973 5.243763 4.753650 -3.100431 1.226462 22.111030 -1.868036 10.285521 0.000002 0.000002 1.434424 -0.724846 8.027893 -22.789266 13.829348 -10.191275 -244.324882 -43.558452 -197.405239 21.064355 7.800838 -28.776963 1.997664 3.259348 -17.521172 -3.847916 1.477502 -5.747644 -3.793556 1.795921 -5.307529 1.812379 2.864043 -19.557309 -2.263264 0.762026 -6.606025 -2.022168 0.597582 -8.120940 2.042317 5.776010 -23.264324 -0.375254 -0.092985 -11.708880 -0.502495 -1.280792 -15.080465 1.105447 2.907498 -21.790462 -0.453864 0.116825 -14.178873 -0.613530 -0.720104 -11.920050 -5.222300 -4.290683 -5.336488 -0.658845 4.543188 -0.023204 -1.191289 2.684832 -0.314412 3.365570 -1.873081 -22.813105 -19.188829 5.519577 31.898988 -42.808668 126.054228 11.568237 6.076494 9.217582 -19.753807 -6.627303 -4.988835 -12.742727 -3.819856 -1.481800 5.697102 -2.887921 -0.727094 12.943358 -2.282128 -2.886584 -2.837621 -2.528123 -1.203422 2.930155 -1.577412 0.312224 15.117078 0.514700 -1.342323 3.583437 -0.370994 -0.699731 4.179386 -0.571432 1.749542 19.571892 0.200943 -1.874554 0.740484 -0.849203 -1.252206 4.066488 -0.469853 1.379194 17.750280 -20.792892 1.611892 -8.885139 1.835880 -13.391363 -1.074099 0.705116 -9.296310 -0.605454 9.695099 -5.446950 0.204141 -14.919894 11.520435 16.308654 32.227903 11.271186 -5.074903 -13.571594 6.864742 -11.086797 -1.936946 -0.000003 -0.000021 -9.695100 -5.446958 0.204042 -7.031224 0.662920 -0.535177 25.838580 -10.650606 0.103857 -17.373812 -12.443483 9.648528 -3.046181 -0.000009 0.000017 
0.000000 12.574439 0.000011 4.317216 -3.980996 1.571124 -9.354824 -1.051016 -0.226143 5.129842 4.941674 -2.669313 1.528885 21.791570 -2.371780 10.285521 0.000002 0.000002 1.386991 -0.550279 7.933233 -23.788589 13.239678 -9.094870 -244.376082 -42.742047 -196.963067 21.644663 8.596427 -29.290839 1.798957 2.457521 -18.178204 -3.935202 1.527084 -5.100099 -3.725922 1.708980 -5.855895 1.608856 2.225594 -20.164216 -2.289673 0.802452 -6.271969 -1.972294 0.525788 -8.765166 1.912922 5.715707 -23.996676 -0.375346 -0.093837 -11.753273 -0.502207 -1.340418 -15.644598 0.947464 2.687769 -22.432006 -0.475406 0.205675 -13.540494 -0.592479 -0.783674 -12.505076 -5.222298 -4.290686 -5.336493 -0.682737 4.471721 -0.029115 -1.179653 2.724319 -0.307704 3.846012 -1.547642 -22.315246 -19.730663 7.883805 31.718838 -40.927610 124.193234 10.983419 5.076711 8.293483 -20.636300 -7.418872 -2.793240 -13.484256 -3.732554 -1.346409 6.478090 -2.866108 -0.698588 13.136090 -2.858954 -1.052663 -2.905251 -2.481547 -1.115031 3.689369 -1.568240 0.322521 15.233327 -0.320057 0.693425 4.723941 -0.371213 -0.661946 4.450553 -0.571818 1.756498 19.649227 -0.397688 -0.429568 1.298422 -0.823187 -1.201349 4.542073 -0.465620 1.399525 17.914116 -20.803266 1.395187 -8.992427 1.872022 -13.522383 -1.088748 0.734009 -9.399272 -0.617773 9.695098 -5.446949 0.204141 -15.521417 11.495842 15.793078 32.734177 11.095676 -5.134214 -13.799890 6.796292 -10.293062 -1.822520 -0.000000 -0.000031 -9.695100 -5.446958 0.204042 -7.588080 0.614087 -1.002124 26.159319 -10.374968 0.016759 -16.956061 -12.435509 10.274432 -3.062024 0.000002 0.000018 
-0.000000 12.574439 0.000011 4.996950 -5.775941 -0.104892 -9.207235 -1.880175 1.550817 4.987104 5.061369 -2.092520 1.664408 21.374753 -2.696373 10.285523 -0.000003 0.000003 1.130113 -0.327823 7.496063 -24.404642 12.001459 -8.027668 -244.263028 -42.023538 -196.568241 22.072221 9.238861 -29.473704 1.800436 1.944303 -19.089771 -3.933337 1.530982 -5.039990 -3.655743 1.620812 -6.426134 1.562351 1.909718 -20.774410 -2.277276 0.801146 -6.368686 -1.921204 0.450609 -9.435957 1.846250 5.641226 -24.795296 -0.383265 -0.159126 -12.395267 -0.502719 -1.405793 -16.260881 0.874476 2.536311 -23.086275 -0.494149 0.266523 -13.081291 -0.571069 -0.853996 -13.145527 -5.222296 -4.290685 -5.336490 -0.696910 4.428672 -0.032845 -1.161499 2.785939 -0.297408 3.863417 -0.983152 -20.903147 -20.052691 10.362216 31.779450 -37.801521 122.232396 9.572300 3.369395 4.782075 -23.613050 -8.007090 0.349355 -13.103957 -3.602618 -1.173270 7.596160 -2.851371 -0.679305 13.265616 -3.619218 1.665788 -2.279658 -2.404664 -0.962880 4.917499 -1.560347 0.324582 15.308815 -1.356955 3.133355 6.433558 -0.374070 -0.484114 6.182260 -0.571029 1.761392 19.740633 -1.285657 2.122829 2.622905 -0.746388 -1.032281 6.234915 -0.461653 1.415785 18.047390 -20.785842 0.998534 -9.107729 1.941053 -13.786998 -1.122887 0.789374 -9.608279 -0.646609 9.695098 -5.446949 0.204141 -15.940038 11.455741 15.656494 34.164330 10.706358 -5.247277 -14.370566 6.643528 -9.709437 -1.740402 0.000002 -0.000039 -9.695099 -5.446958 0.204042 -7.482220 0.545186 -1.544499 27.223312 -10.100908 -0.053476 -16.633203 -12.406278 10.981673 -3.058792 -0.000005 0.000018 
0.000000 12.574438 0.000011 6.437502 -6.644072 -1.709057 -8.991045 -2.477801 3.010541 4.864162 5.066365 -1.549753 1.446122 20.853821 -2.700089 10.285523 -0.000000 0.000002 0.686012 -0.098041 6.760439 -24.481462 10.350513 -7.007520 -244.001186 -41.427710 -196.323583 22.333240 9.948255 -29.220232 2.048753 2.042058 -19.564604 -3.833028 1.483380 -5.646081 -3.585589 1.534787 -6.997174 1.782374 2.124933 -21.319645 -2.253717 0.775839 -6.607516 -1.871683 0.374649 -10.101142 1.873748 5.557753 -25.583645 -0.392967 -0.237290 -13.165732 -0.504077 -1.474252 -16.905020 0.923013 2.426968 -23.747012 -0.508581 0.304610 -12.754270 -0.550310 -0.928324 -13.813550 -5.222300 -4.290679 -5.336488 -0.701246 4.414472 -0.034286 -1.137784 2.866233 -0.284201 3.326002 -0.300744 -18.589620 -20.171692 12.740500 32.208211 -33.239741 121.101713 6.889552 0.621268 -1.083636 -28.791720 -8.706659 4.262063 -11.942413 -3.389728 -0.927647 9.436282 -2.845852 -0.672242 13.313254 -4.460760 5.024176 -0.940454 -2.237847 -0.701675 7.194277 -1.556369 0.323494 15.335414 -2.743826 6.006749 8.285089 -0.378175 -0.194196 9.110937 -0.570133 1.768708 19.869746 -2.467170 5.159077 4.511483 -0.626905 -0.692428 9.342509 -0.458187 1.426021 18.137205 -20.767004 0.476307 -9.258811 2.026927 -14.120795 -1.165396 0.914659 -10.049375 -0.697317 9.695097 -5.446949 0.204142 -15.642064 11.486453 15.574324 36.139764 10.183524 -5.435628 -15.482118 6.301428 -9.132717 -1.604045 0.000011 -0.000040 -9.695099 -5.446958 0.204042 -7.214490 0.611891 -2.083446 28.857300 -9.840789 -0.181571 -16.431832 -12.430572 11.797676 -3.052535 0.000003 0.000017 
